<svg xmlns="http://www.w3.org/2000/svg" viewBox="0 0 1600 900" fill="none">
  <defs>
    <linearGradient id="bg" x1="100" y1="50" x2="1500" y2="850" gradientUnits="userSpaceOnUse">
      <stop stop-color="#052e16"/>
      <stop offset=".55" stop-color="#111827"/>
      <stop offset="1" stop-color="#3f6212"/>
    </linearGradient>
    <linearGradient id="accent" x1="880" y1="160" x2="1360" y2="700" gradientUnits="userSpaceOnUse">
      <stop stop-color="#4ade80"/>
      <stop offset="1" stop-color="#16a34a"/>
    </linearGradient>
  </defs>
  <rect width="1600" height="900" fill="url(#bg)"/>
  <rect x="1216" y="88" width="240" height="240" rx="120" fill="#fff" fill-opacity=".05"/>
  <rect x="1084" y="632" width="268" height="268" rx="134" fill="#fff" fill-opacity=".04"/>
  <path d="M985 150h232l132 111-71 127-27 464c-2 37-31 66-68 66H1017c-37 0-66-29-68-66l-27-464-71-127 134-111Z" fill="url(#accent)"/>
  <path d="M1024 150c10 55 44 95 77 95 33 0 67-40 77-95" stroke="#f0fdf4" stroke-opacity=".28" stroke-width="18" stroke-linecap="round"/>
  <path d="M1026 543h149" stroke="#f0fdf4" stroke-opacity=".34" stroke-width="18" stroke-linecap="round"/>
  <path d="M980 622h241" stroke="#f0fdf4" stroke-opacity=".24" stroke-width="15" stroke-linecap="round"/>
</svg>
