<svg xmlns="http://www.w3.org/2000/svg" viewBox="0 0 1600 900" fill="none">
  <defs>
    <linearGradient id="bg" x1="160" y1="40" x2="1480" y2="860" gradientUnits="userSpaceOnUse">
      <stop stop-color="#581c87"/>
      <stop offset=".55" stop-color="#111827"/>
      <stop offset="1" stop-color="#7c2d12"/>
    </linearGradient>
    <linearGradient id="accent" x1="850" y1="150" x2="1290" y2="710" gradientUnits="userSpaceOnUse">
      <stop stop-color="#f9a8d4"/>
      <stop offset="1" stop-color="#f97316"/>
    </linearGradient>
  </defs>
  <rect width="1600" height="900" fill="url(#bg)"/>
  <circle cx="1310" cy="180" r="180" fill="#fff" fill-opacity=".05"/>
  <circle cx="1230" cy="760" r="170" fill="#fff" fill-opacity=".04"/>
  <path d="M1116 160c66 0 120 54 120 120v50l116 109-116 78 144 243c31 53-7 120-68 120H892c-61 0-99-67-68-120l144-243-116-78 116-109v-50c0-66 54-120 120-120h28Z" fill="url(#accent)" fill-opacity=".95"/>
  <path d="M1044 344c47 40 97 60 149 60 52 0 102-20 149-60" stroke="#fff" stroke-opacity=".38" stroke-width="18" stroke-linecap="round"/>
  <path d="M909 262 1161 503" stroke="#fff" stroke-opacity=".14" stroke-width="24" stroke-linecap="round"/>
</svg>
