<svg xmlns="http://www.w3.org/2000/svg" viewBox="0 0 1600 900" fill="none">
  <defs>
    <linearGradient id="bg" x1="110" y1="70" x2="1490" y2="830" gradientUnits="userSpaceOnUse">
      <stop stop-color="#111827"/>
      <stop offset=".55" stop-color="#0f172a"/>
      <stop offset="1" stop-color="#1c1917"/>
    </linearGradient>
    <linearGradient id="accent" x1="840" y1="180" x2="1390" y2="620" gradientUnits="userSpaceOnUse">
      <stop stop-color="#fb923c"/>
      <stop offset="1" stop-color="#ea580c"/>
    </linearGradient>
  </defs>
  <rect width="1600" height="900" fill="url(#bg)"/>
  <circle cx="1250" cy="140" r="170" fill="#fff" fill-opacity=".06"/>
  <circle cx="1180" cy="760" r="220" fill="#fff" fill-opacity=".05"/>
  <path d="M870 550c66-122 191-210 351-210 104 0 194 31 258 84 64 53 103 129 108 216H959c-65 0-109-52-89-90Z" fill="url(#accent)"/>
  <path d="M1002 607h510c35 0 64 29 64 64s-29 64-64 64H934c-42 0-76-34-76-76 0-13 3-27 10-39 24 13 48 19 74 19h60Z" fill="#f8fafc"/>
  <path d="M980 224 1190 470" stroke="#fff" stroke-opacity=".18" stroke-width="32" stroke-linecap="round"/>
  <path d="M1070 164 1320 452" stroke="#fff" stroke-opacity=".11" stroke-width="18" stroke-linecap="round"/>
</svg>
