<svg xmlns="http://www.w3.org/2000/svg" viewBox="0 0 1200 1600" fill="none">
  <defs>
    <linearGradient id="bg" x1="120" y1="120" x2="1100" y2="1500" gradientUnits="userSpaceOnUse">
      <stop stop-color="#052e16"/>
      <stop offset="1" stop-color="#111827"/>
    </linearGradient>
    <linearGradient id="accent" x1="190" y1="420" x2="930" y2="1220" gradientUnits="userSpaceOnUse">
      <stop stop-color="#4ade80"/>
      <stop offset="1" stop-color="#16a34a"/>
    </linearGradient>
  </defs>
  <rect width="1200" height="1600" fill="url(#bg)"/>
  <rect x="128" y="164" width="420" height="420" rx="210" fill="#ffffff" fill-opacity=".05"/>
  <rect x="742" y="1040" width="262" height="262" rx="131" fill="#ffffff" fill-opacity=".04"/>
  <path d="M313 1036c58-153 215-274 419-274 128 0 246 48 336 125 87 75 137 181 137 296H405c-95 0-149-109-92-193Z" fill="url(#accent)"/>
  <path d="M438 1156h612c49 0 89 40 89 89s-40 89-89 89H355c-55 0-102-32-124-79 28-58 75-99 147-99h60Z" fill="#ecfeff"/>
  <path d="M544 818c66-33 137-49 213-49 97 0 186 30 264 88" stroke="#ecfeff" stroke-opacity=".36" stroke-width="24" stroke-linecap="round"/>
  <path d="M500 886c47-23 93-38 136-44" stroke="#ecfeff" stroke-opacity=".42" stroke-width="18" stroke-linecap="round"/>
  <text x="88" y="1360" fill="#ecfeff" fill-opacity=".72" font-family="Arial, Helvetica, sans-serif" font-size="34" letter-spacing="6">SMARTEST STORE KE</text>
  <text x="88" y="1452" fill="#ecfeff" font-family="Arial, Helvetica, sans-serif" font-size="94" font-weight="700">KICKS</text>
</svg>
